# xmcd CD database file
#
# Track frame offsets:
#        150
#        12320
#        25360
#        37928
#        50700
#        63343
#        75584
#        88238
#        101050
#        113474
#        125747
#        138076
#        151148
#        163658
#        175998
#        188847
#        201380
#        213943
#        225611
#        238522
#        250857
#        264049
#        276576
#        289767
#        301963
#
# Disc length: 4177 seconds
#
# Revision: 0
# Processed by: cddbd v1.5.2PL0 Copyright (c) Steve Scherf et al.
# Submitted via: CUERipper 2.1.6
#
DISCID=5a104f19
DTITLE=Hank Williams - Best of the singles 1947-1958
DYEAR=2018
DGENRE=Country
TTITLE0=Never again (will I knock on your door)
TTITLE1=Calling you
TTITLE2=Wealth won't save your soul
TTITLE3=When God comes and gathers his jewels
TTITLE4=I don't care (if tomorrow never comes)
TTITLE5=My love for you (has turned to hate)
TTITLE6=Honky tonkin'
TTITLE7=Pan american
TTITLE8=Move it on over
TTITLE9=(Last night) I heard you crying in your sleep
TTITLE10=Fly trouble
TTITLE11=On the banks of the old pontchartrain
TTITLE12=Rootie tootie 
TTITLE13=My sweet love ain't around 
TTITLE14=I'm a long gone daddy 
TTITLE15=I saw the light 
TTITLE16=Six more miles (to the graveyard)
TTITLE17=A mansion on the hill 
TTITLE18=I can't get you off of my mind
TTITLE19=Lovesick blues 
TTITLE20=Wedding bells 
TTITLE21=Dear brother 
TTITLE22=Mind your own business 
TTITLE23=Lost highway 
TTITLE24=My bucket's got a hole in it 
EXTD=
EXTT0=
EXTT1=
EXTT2=
EXTT3=
EXTT4=
EXTT5=
EXTT6=
EXTT7=
EXTT8=
EXTT9=
EXTT10=
EXTT11=
EXTT12=
EXTT13=
EXTT14=
EXTT15=
EXTT16=
EXTT17=
EXTT18=
EXTT19=
EXTT20=
EXTT21=
EXTT22=
EXTT23=
EXTT24=
PLAYORDER=
